<mxfile host="app.diagrams.net" agent="Mozilla/5.0 (Windows NT 10.0; Win64; x64) AppleWebKit/537.36 (KHTML, like Gecko) Chrome/140.0.0.0 Safari/537.36" version="28.2.3">
  <diagram name="Trang-1" id="sAK9aHfum34GCgjFuC16">
    <mxGraphModel dx="1426" dy="743" grid="1" gridSize="10" guides="1" tooltips="1" connect="1" arrows="1" fold="1" page="1" pageScale="1" pageWidth="827" pageHeight="1169" math="0" shadow="0">
      <root>
        <mxCell id="0" />
        <mxCell id="1" parent="0" />
        <mxCell id="0Hp2lXWLAQ3i6HzI0rHX-4" value="Admin" style="shape=umlActor;verticalLabelPosition=bottom;verticalAlign=top;html=1;outlineConnect=0;" vertex="1" parent="1">
          <mxGeometry x="30" y="290" width="40" height="70" as="geometry" />
        </mxCell>
        <mxCell id="0Hp2lXWLAQ3i6HzI0rHX-5" value="Quản lý tài khoản khách hàng" style="ellipse;whiteSpace=wrap;html=1;" vertex="1" parent="1">
          <mxGeometry x="160" y="170" width="160" height="60" as="geometry" />
        </mxCell>
        <mxCell id="0Hp2lXWLAQ3i6HzI0rHX-6" value="Quản lý sản phẩm" style="ellipse;whiteSpace=wrap;html=1;" vertex="1" parent="1">
          <mxGeometry x="160" y="450" width="150" height="60" as="geometry" />
        </mxCell>
        <mxCell id="0Hp2lXWLAQ3i6HzI0rHX-7" value="Quản lý lịch hẹn" style="ellipse;whiteSpace=wrap;html=1;" vertex="1" parent="1">
          <mxGeometry x="250" y="350" width="150" height="70" as="geometry" />
        </mxCell>
        <mxCell id="0Hp2lXWLAQ3i6HzI0rHX-8" value="Thêm sản phẩm" style="ellipse;whiteSpace=wrap;html=1;rotation=0;" vertex="1" parent="1">
          <mxGeometry x="20" y="585" width="110" height="50" as="geometry" />
        </mxCell>
        <mxCell id="0Hp2lXWLAQ3i6HzI0rHX-9" value="Xóa sản phẩm" style="ellipse;whiteSpace=wrap;html=1;" vertex="1" parent="1">
          <mxGeometry x="148.09" y="585" width="120" height="50" as="geometry" />
        </mxCell>
        <mxCell id="0Hp2lXWLAQ3i6HzI0rHX-10" value="Cập nhật sản phẩm" style="ellipse;whiteSpace=wrap;html=1;rotation=0;" vertex="1" parent="1">
          <mxGeometry x="295.96" y="587.21" width="116.17" height="47.79" as="geometry" />
        </mxCell>
        <mxCell id="0Hp2lXWLAQ3i6HzI0rHX-15" value="" style="endArrow=classic;html=1;rounded=0;" edge="1" parent="1" target="0Hp2lXWLAQ3i6HzI0rHX-5">
          <mxGeometry width="50" height="50" relative="1" as="geometry">
            <mxPoint x="90" y="310" as="sourcePoint" />
            <mxPoint x="140" y="260" as="targetPoint" />
          </mxGeometry>
        </mxCell>
        <mxCell id="0Hp2lXWLAQ3i6HzI0rHX-16" value="" style="endArrow=classic;html=1;rounded=0;entryX=0;entryY=0.5;entryDx=0;entryDy=0;" edge="1" parent="1" target="0Hp2lXWLAQ3i6HzI0rHX-7">
          <mxGeometry width="50" height="50" relative="1" as="geometry">
            <mxPoint x="100" y="338.98" as="sourcePoint" />
            <mxPoint x="200" y="340" as="targetPoint" />
          </mxGeometry>
        </mxCell>
        <mxCell id="0Hp2lXWLAQ3i6HzI0rHX-17" value="" style="endArrow=classic;html=1;rounded=0;entryX=0.027;entryY=0.233;entryDx=0;entryDy=0;entryPerimeter=0;" edge="1" parent="1" target="0Hp2lXWLAQ3i6HzI0rHX-6">
          <mxGeometry width="50" height="50" relative="1" as="geometry">
            <mxPoint x="90" y="370" as="sourcePoint" />
            <mxPoint x="140" y="450" as="targetPoint" />
          </mxGeometry>
        </mxCell>
        <mxCell id="0Hp2lXWLAQ3i6HzI0rHX-23" value="Xóa thông tin người dùng" style="ellipse;whiteSpace=wrap;html=1;rotation=0;" vertex="1" parent="1">
          <mxGeometry x="30" y="31.29" width="160" height="58.71" as="geometry" />
        </mxCell>
        <mxCell id="0Hp2lXWLAQ3i6HzI0rHX-24" value="Tìm kiếm TT người dùng" style="ellipse;whiteSpace=wrap;html=1;" vertex="1" parent="1">
          <mxGeometry x="268.09" y="31.29" width="171.91" height="58.71" as="geometry" />
        </mxCell>
        <mxCell id="0Hp2lXWLAQ3i6HzI0rHX-29" value="" style="endArrow=open;endSize=12;dashed=1;html=1;rounded=0;entryX=0.5;entryY=1;entryDx=0;entryDy=0;" edge="1" parent="1">
          <mxGeometry x="-0.0035" width="160" relative="1" as="geometry">
            <mxPoint x="218" y="580" as="sourcePoint" />
            <mxPoint x="217.5" y="510" as="targetPoint" />
            <mxPoint as="offset" />
          </mxGeometry>
        </mxCell>
        <mxCell id="0Hp2lXWLAQ3i6HzI0rHX-30" value="" style="endArrow=open;endSize=12;dashed=1;html=1;rounded=0;entryX=1;entryY=1;entryDx=0;entryDy=0;exitX=0.31;exitY=0.042;exitDx=0;exitDy=0;exitPerimeter=0;" edge="1" parent="1" source="0Hp2lXWLAQ3i6HzI0rHX-10" target="0Hp2lXWLAQ3i6HzI0rHX-6">
          <mxGeometry width="160" relative="1" as="geometry">
            <mxPoint x="350" y="559.13" as="sourcePoint" />
            <mxPoint x="510" y="559.13" as="targetPoint" />
          </mxGeometry>
        </mxCell>
        <mxCell id="0Hp2lXWLAQ3i6HzI0rHX-31" value="" style="endArrow=open;endSize=12;dashed=1;html=1;rounded=0;entryX=0.281;entryY=-0.033;entryDx=0;entryDy=0;entryPerimeter=0;" edge="1" parent="1" target="0Hp2lXWLAQ3i6HzI0rHX-5">
          <mxGeometry x="0.0074" width="160" relative="1" as="geometry">
            <mxPoint x="120" y="90.29000000000002" as="sourcePoint" />
            <mxPoint x="280" y="90.29000000000002" as="targetPoint" />
            <mxPoint as="offset" />
          </mxGeometry>
        </mxCell>
        <mxCell id="0Hp2lXWLAQ3i6HzI0rHX-35" value="" style="endArrow=open;endSize=12;dashed=1;html=1;rounded=0;entryX=0.688;entryY=-0.017;entryDx=0;entryDy=0;entryPerimeter=0;" edge="1" parent="1" target="0Hp2lXWLAQ3i6HzI0rHX-5">
          <mxGeometry width="160" relative="1" as="geometry">
            <mxPoint x="320" y="90.29000000000002" as="sourcePoint" />
            <mxPoint x="480" y="90.29000000000002" as="targetPoint" />
          </mxGeometry>
        </mxCell>
        <mxCell id="0Hp2lXWLAQ3i6HzI0rHX-36" value="" style="endArrow=open;endSize=12;dashed=1;html=1;rounded=0;entryX=0;entryY=1;entryDx=0;entryDy=0;" edge="1" parent="1" target="0Hp2lXWLAQ3i6HzI0rHX-6">
          <mxGeometry width="160" relative="1" as="geometry">
            <mxPoint x="100" y="580" as="sourcePoint" />
            <mxPoint x="260" y="550" as="targetPoint" />
          </mxGeometry>
        </mxCell>
        <mxCell id="0Hp2lXWLAQ3i6HzI0rHX-38" value="Chốt lịch hẹn với khách hàng" style="ellipse;whiteSpace=wrap;html=1;rotation=0;" vertex="1" parent="1">
          <mxGeometry x="450" y="450" width="160" height="60" as="geometry" />
        </mxCell>
        <mxCell id="0Hp2lXWLAQ3i6HzI0rHX-39" value="Thống kê lịch hẹn" style="ellipse;whiteSpace=wrap;html=1;rotation=0;" vertex="1" parent="1">
          <mxGeometry x="480" y="330" width="160" height="60" as="geometry" />
        </mxCell>
        <mxCell id="0Hp2lXWLAQ3i6HzI0rHX-40" value="" style="endArrow=open;endSize=12;dashed=1;html=1;rounded=0;" edge="1" parent="1" target="0Hp2lXWLAQ3i6HzI0rHX-7">
          <mxGeometry width="160" relative="1" as="geometry">
            <mxPoint x="470" y="460" as="sourcePoint" />
            <mxPoint x="630" y="460" as="targetPoint" />
          </mxGeometry>
        </mxCell>
        <mxCell id="0Hp2lXWLAQ3i6HzI0rHX-42" value="" style="endArrow=open;endSize=12;dashed=1;html=1;rounded=0;entryX=0.993;entryY=0.414;entryDx=0;entryDy=0;entryPerimeter=0;exitX=0.044;exitY=0.617;exitDx=0;exitDy=0;exitPerimeter=0;" edge="1" parent="1" source="0Hp2lXWLAQ3i6HzI0rHX-39" target="0Hp2lXWLAQ3i6HzI0rHX-7">
          <mxGeometry x="-0.0118" y="2" width="160" relative="1" as="geometry">
            <mxPoint x="460" y="374.5" as="sourcePoint" />
            <mxPoint x="620" y="374.5" as="targetPoint" />
            <mxPoint as="offset" />
          </mxGeometry>
        </mxCell>
        <mxCell id="0Hp2lXWLAQ3i6HzI0rHX-44" style="edgeStyle=orthogonalEdgeStyle;rounded=0;orthogonalLoop=1;jettySize=auto;html=1;exitX=0.5;exitY=1;exitDx=0;exitDy=0;entryX=0.655;entryY=1.105;entryDx=0;entryDy=0;entryPerimeter=0;" edge="1" parent="1" source="0Hp2lXWLAQ3i6HzI0rHX-10" target="0Hp2lXWLAQ3i6HzI0rHX-10">
          <mxGeometry relative="1" as="geometry" />
        </mxCell>
        <mxCell id="0Hp2lXWLAQ3i6HzI0rHX-45" value="Tìm kiếm sản phẩm" style="ellipse;whiteSpace=wrap;html=1;" vertex="1" parent="1">
          <mxGeometry x="440" y="580" width="120" height="50" as="geometry" />
        </mxCell>
        <mxCell id="0Hp2lXWLAQ3i6HzI0rHX-46" value="" style="endArrow=open;endSize=12;dashed=1;html=1;rounded=0;entryX=0.987;entryY=0.783;entryDx=0;entryDy=0;entryPerimeter=0;" edge="1" parent="1">
          <mxGeometry width="160" relative="1" as="geometry">
            <mxPoint x="471.95" y="580" as="sourcePoint" />
            <mxPoint x="309.99999999999994" y="489.77000000000004" as="targetPoint" />
          </mxGeometry>
        </mxCell>
        <mxCell id="0Hp2lXWLAQ3i6HzI0rHX-47" value="Quản lý bài đăng, khuyến mãi" style="ellipse;whiteSpace=wrap;html=1;" vertex="1" parent="1">
          <mxGeometry x="260" y="250" width="175" height="60" as="geometry" />
        </mxCell>
        <mxCell id="0Hp2lXWLAQ3i6HzI0rHX-49" value="" style="endArrow=classic;html=1;rounded=0;entryX=0;entryY=0.5;entryDx=0;entryDy=0;" edge="1" parent="1" target="0Hp2lXWLAQ3i6HzI0rHX-47">
          <mxGeometry width="50" height="50" relative="1" as="geometry">
            <mxPoint x="98.08999999999997" y="320" as="sourcePoint" />
            <mxPoint x="148.08999999999997" y="270" as="targetPoint" />
          </mxGeometry>
        </mxCell>
        <mxCell id="0Hp2lXWLAQ3i6HzI0rHX-50" value="Đăng bài, xóa bài" style="ellipse;whiteSpace=wrap;html=1;" vertex="1" parent="1">
          <mxGeometry x="400" y="130" width="150" height="70" as="geometry" />
        </mxCell>
        <mxCell id="0Hp2lXWLAQ3i6HzI0rHX-51" value="Tạo khuyến mãi" style="ellipse;whiteSpace=wrap;html=1;" vertex="1" parent="1">
          <mxGeometry x="520" y="220" width="140" height="60" as="geometry" />
        </mxCell>
        <mxCell id="0Hp2lXWLAQ3i6HzI0rHX-52" value="" style="endArrow=open;endSize=12;dashed=1;html=1;rounded=0;entryX=0.646;entryY=-0.033;entryDx=0;entryDy=0;entryPerimeter=0;exitX=0.28;exitY=1.014;exitDx=0;exitDy=0;exitPerimeter=0;" edge="1" parent="1" source="0Hp2lXWLAQ3i6HzI0rHX-50" target="0Hp2lXWLAQ3i6HzI0rHX-47">
          <mxGeometry x="0.0253" y="6" width="160" relative="1" as="geometry">
            <mxPoint x="414" y="190" as="sourcePoint" />
            <mxPoint x="574" y="190" as="targetPoint" />
            <mxPoint as="offset" />
          </mxGeometry>
        </mxCell>
        <mxCell id="0Hp2lXWLAQ3i6HzI0rHX-55" value="" style="endArrow=open;endSize=12;dashed=1;html=1;rounded=0;entryX=1;entryY=0.5;entryDx=0;entryDy=0;" edge="1" parent="1" target="0Hp2lXWLAQ3i6HzI0rHX-47">
          <mxGeometry x="-0.1134" y="7" width="160" relative="1" as="geometry">
            <mxPoint x="530" y="250" as="sourcePoint" />
            <mxPoint x="690" y="250" as="targetPoint" />
            <mxPoint as="offset" />
          </mxGeometry>
        </mxCell>
      </root>
    </mxGraphModel>
  </diagram>
</mxfile>
